<svg width="373" height="34" viewBox="0 0 373 34" fill="none" xmlns="http://www.w3.org/2000/svg">
<g clip-path="url(#clip0_7255_11667)">
<path d="M51.0042 8.74966L46.9888 13.8203L44.4702 17.0013L40.2699 11.697C39.6204 10.9294 38.7988 10.8138 38.3624 10.8138C37.9259 10.8138 37.1043 10.9294 36.4548 11.697L32.2545 17.0013L29.7924 20.1129L29.7385 20.1823L29.682 20.2542L25.7231 25.2529L23.9105 27.543C23.872 27.5918 23.8335 27.638 23.795 27.6842C21.2327 30.7599 17.5819 32.4262 13.7796 32.4262C12.2853 32.4262 10.768 32.1694 9.28405 31.638C3.99008 29.7381 0.570312 24.8729 0.570312 19.24V14.7599C0.570312 17.5892 2.863 19.8819 5.69226 19.8819C8.52153 19.8819 10.8142 17.5892 10.8142 14.7599V19.24C10.8142 21.1014 12.1595 21.7843 12.7398 21.9923C13.3123 22.1977 14.7654 22.5212 15.9285 21.1194L19.1916 17.0013L21.6717 13.869L21.7102 13.8203L21.7385 13.7843L25.7256 8.74966L28.4676 5.28882C28.4882 5.26314 28.5087 5.23747 28.5292 5.21436C30.958 2.26186 34.5446 0.569946 38.3675 0.569946C42.1903 0.569946 45.777 2.26186 48.2057 5.21436C48.2263 5.24004 48.2468 5.26314 48.2674 5.28882L51.0093 8.74966H51.0042Z" fill="#4285F4" stroke="#202124" stroke-width="1.13736" stroke-miterlimit="10"/>
<path d="M23.9079 6.46209L25.7205 8.7522L21.7333 13.7869L21.7051 13.8228L21.6666 13.8716L19.1865 17.0038L15.9259 12.8857C14.7629 11.4839 13.3097 11.8074 12.7372 12.0128C12.1595 12.2208 10.8116 12.9037 10.8116 14.765C10.8116 17.5943 8.51897 19.887 5.6897 19.887C2.86043 19.887 0.570312 17.5892 0.570312 14.7599C0.570312 9.12704 3.99008 4.26183 9.28405 2.36453C14.5395 0.480059 20.2237 2.03333 23.7924 6.31575C23.8309 6.36196 23.872 6.41074 23.9105 6.45695L23.9079 6.46209Z" fill="#EA4335" stroke="#202124" stroke-width="1.13736" stroke-miterlimit="10"/>
<path d="M29.792 20.1104L29.7381 20.1797L29.6816 20.2516C29.7202 20.2053 29.7561 20.1591 29.792 20.1129V20.1104Z" fill="#EA4335" stroke="#202124" stroke-width="1.13736" stroke-miterlimit="10"/>
<path d="M21.6691 13.869C21.6896 13.8408 21.7127 13.8125 21.7358 13.7843L21.7076 13.8202L21.6691 13.869Z" fill="#34A853" stroke="#202124" stroke-width="1.13736" stroke-miterlimit="10"/>
<path d="M76.1569 14.7599V19.24C76.1569 16.4108 73.8643 14.1181 71.035 14.1181C68.2057 14.1181 65.913 16.4108 65.913 19.24V14.7599C65.913 12.8986 64.5677 12.2157 63.9875 12.0077C63.415 11.8023 61.9618 11.4788 60.7988 12.8806L57.5382 16.9987L55.0581 20.1309L55.0196 20.1797L54.9914 20.2157L51.0042 25.2503L48.2622 28.7112C48.2417 28.7368 48.2211 28.7625 48.2006 28.7856C45.7718 31.7356 42.1852 33.43 38.3623 33.43C34.5395 33.43 30.9528 31.7381 28.5241 28.7856C28.5035 28.7599 28.483 28.7368 28.4625 28.7112L25.7205 25.2477L29.6794 20.249C29.7179 20.2028 29.7539 20.1566 29.7898 20.1104L32.2519 16.9987L36.4522 22.3029C37.1017 23.0706 37.9233 23.1861 38.3598 23.1861C38.7962 23.1861 39.6178 23.0706 40.2648 22.3029L44.465 16.9987L46.9426 13.8691L46.9811 13.8203L47.017 13.7741L50.9965 8.74968L52.8091 6.45956C52.8476 6.41078 52.8887 6.362 52.9272 6.31579C56.4958 2.03337 62.1801 0.482666 67.4355 2.36457C72.7269 4.26187 76.1492 9.12708 76.1492 14.7599H76.1569Z" fill="#34A853" stroke="#202124" stroke-width="1.13736" stroke-miterlimit="10"/>
<path d="M46.9473 13.869C46.9704 13.8382 46.996 13.8049 47.0217 13.774L46.9858 13.8203L46.9473 13.869Z" fill="#FBBC04" stroke="#202124" stroke-width="1.13736" stroke-miterlimit="10"/>
<path d="M76.1567 19.24C76.1567 24.8729 72.7369 29.7381 67.4429 31.6354C65.959 32.1668 64.4416 32.4236 62.9474 32.4236C59.1477 32.4236 55.4968 30.7573 52.9346 27.6816C52.8935 27.6354 52.855 27.5866 52.8165 27.5378L51.0039 25.2477L54.9911 20.213L55.0193 20.1771L55.0578 20.1283L57.5379 16.9961L60.7985 21.1142C61.9615 22.516 63.4173 22.1925 63.9872 21.9871C64.5649 21.7792 65.9128 21.0962 65.9128 19.2349C65.9128 16.4056 68.2054 14.1129 71.0347 14.1129C73.864 14.1129 76.1567 16.4056 76.1567 19.2349V19.24Z" fill="#FBBC04" stroke="#202124" stroke-width="1.13736" stroke-miterlimit="10"/>
<path d="M97.1525 24.8909C95.7995 24.1104 94.7263 23.0372 93.9304 21.6688C93.1345 20.3004 92.7366 18.7907 92.7366 17.1348C92.7366 15.4788 93.1345 13.9692 93.9304 12.6008C94.7263 11.2323 95.7995 10.1592 97.1525 9.37867C98.5055 8.59819 99.9843 8.21051 101.592 8.21051C102.847 8.21051 104.028 8.43387 105.135 8.87803C106.241 9.32476 107.15 9.9512 107.866 10.7625L106.411 12.2182C105.869 11.5507 105.178 11.0372 104.333 10.6778C103.489 10.3209 102.583 10.1412 101.612 10.1412C100.403 10.1412 99.2783 10.4313 98.2359 11.0115C97.1936 11.5918 96.3592 12.4108 95.7302 13.4685C95.1011 14.5263 94.7879 15.7484 94.7879 17.1322C94.7879 18.516 95.1011 19.7381 95.7302 20.7959C96.3592 21.8536 97.1987 22.6726 98.2488 23.2529C99.2988 23.8331 100.421 24.1232 101.612 24.1232C102.803 24.1232 103.715 23.9435 104.488 23.5866C105.258 23.2298 105.923 22.7548 106.48 22.1669C106.893 21.7227 107.227 21.1836 107.481 20.5571C107.735 19.9281 107.894 19.2323 107.959 18.4698H101.635V16.5854H109.843C109.923 17.0321 109.961 17.4454 109.961 17.8254C109.961 18.8755 109.794 19.8973 109.461 20.8909C109.127 21.8845 108.593 22.7574 107.861 23.5045C106.287 25.2067 104.195 26.059 101.586 26.059C99.9792 26.059 98.5004 25.6688 97.1474 24.8909H97.1525Z" fill="#202124"/>
<path d="M114.336 25.2015C113.381 24.629 112.637 23.8485 112.105 22.8626C111.571 21.8768 111.307 20.7856 111.307 19.5943C111.307 18.4031 111.574 17.3119 112.105 16.326C112.639 15.3402 113.381 14.5597 114.336 13.9872C115.291 13.4146 116.365 13.1271 117.558 13.1271C118.752 13.1271 119.825 13.4146 120.78 13.9872C121.736 14.5597 122.477 15.3402 123.012 16.326C123.546 17.3119 123.81 18.4031 123.81 19.5943C123.81 20.7856 123.543 21.8768 123.012 22.8626C122.477 23.8485 121.736 24.629 120.78 25.2015C119.825 25.7741 118.752 26.0616 117.558 26.0616C116.365 26.0616 115.291 25.7741 114.336 25.2015ZM119.646 23.6611C120.29 23.2863 120.806 22.7497 121.196 22.0513C121.587 21.3504 121.782 20.5314 121.782 19.5943C121.782 18.6572 121.587 17.8357 121.196 17.1373C120.806 16.4364 120.29 15.8999 119.646 15.5276C119.001 15.1527 118.305 14.9679 117.558 14.9679C116.811 14.9679 116.11 15.1553 115.458 15.5276C114.806 15.9024 114.285 16.439 113.895 17.1373C113.504 17.8382 113.309 18.6572 113.309 19.5943C113.309 20.5314 113.504 21.353 113.895 22.0513C114.285 22.7522 114.806 23.2888 115.458 23.6611C116.11 24.0359 116.811 24.2208 117.558 24.2208C118.305 24.2208 119.001 24.0334 119.646 23.6611Z" fill="#202124"/>
<path d="M127.905 25.2015C126.95 24.629 126.205 23.8485 125.674 22.8626C125.14 21.8768 124.875 20.7856 124.875 19.5943C124.875 18.4031 125.142 17.3119 125.674 16.326C126.208 15.3402 126.95 14.5597 127.905 13.9872C128.86 13.4146 129.933 13.1271 131.127 13.1271C132.321 13.1271 133.394 13.4146 134.349 13.9872C135.304 14.5597 136.046 15.3402 136.58 16.326C137.114 17.3119 137.379 18.4031 137.379 19.5943C137.379 20.7856 137.112 21.8768 136.58 22.8626C136.046 23.8485 135.304 24.629 134.349 25.2015C133.394 25.7741 132.321 26.0616 131.127 26.0616C129.933 26.0616 128.86 25.7741 127.905 25.2015ZM133.214 23.6611C133.859 23.2863 134.375 22.7497 134.765 22.0513C135.155 21.3504 135.35 20.5314 135.35 19.5943C135.35 18.6572 135.155 17.8357 134.765 17.1373C134.375 16.4364 133.859 15.8999 133.214 15.5276C132.57 15.1527 131.874 14.9679 131.127 14.9679C130.38 14.9679 129.679 15.1553 129.027 15.5276C128.375 15.9024 127.854 16.439 127.463 17.1373C127.073 17.8382 126.878 18.6572 126.878 19.5943C126.878 20.5314 127.073 21.353 127.463 22.0513C127.854 22.7522 128.375 23.2888 129.027 23.6611C129.679 24.0359 130.38 24.2208 131.127 24.2208C131.874 24.2208 132.57 24.0334 133.214 23.6611Z" fill="#202124"/>
<path d="M140.889 30.2105C139.959 29.543 139.333 28.7394 139.015 27.7997L140.853 27.0115C141.122 27.7124 141.572 28.2798 142.201 28.7189C142.83 29.1553 143.572 29.3761 144.432 29.3761C145.687 29.3761 146.663 29.0244 147.356 28.3235C148.049 27.6226 148.393 26.6213 148.393 25.3196V23.9589H148.298C147.9 24.5802 147.341 25.0834 146.617 25.4737C145.893 25.8639 145.068 26.059 144.147 26.059C143.097 26.059 142.139 25.7843 141.271 25.2375C140.404 24.6906 139.715 23.9255 139.207 22.9448C138.699 21.9641 138.445 20.8447 138.445 19.5918C138.445 18.3389 138.699 17.24 139.207 16.249C139.715 15.2606 140.404 14.4929 141.271 13.9461C142.139 13.3992 143.097 13.1245 144.147 13.1245C145.068 13.1245 145.893 13.3196 146.617 13.7099C147.341 14.1001 147.9 14.6136 148.298 15.2477H148.393V13.5071H150.326V25.199C150.326 27.1553 149.785 28.647 148.704 29.6739C147.623 30.7009 146.198 31.2144 144.432 31.2144C142.999 31.2144 141.818 30.8806 140.889 30.2131V30.2105ZM146.424 23.6637C147.02 23.2914 147.497 22.7599 147.857 22.0642C148.216 21.3684 148.393 20.5443 148.393 19.5918C148.393 18.6393 148.214 17.7895 147.857 17.0963C147.5 16.4031 147.022 15.8716 146.424 15.5096C145.826 15.1476 145.163 14.9653 144.432 14.9653C143.7 14.9653 143.033 15.1502 142.427 15.5225C141.821 15.8947 141.341 16.4262 140.984 17.1219C140.627 17.8177 140.447 18.6418 140.447 19.5943C140.447 20.5468 140.627 21.3761 140.984 22.0796C141.341 22.783 141.823 23.3171 142.427 23.6791C143.03 24.0436 143.7 24.2234 144.432 24.2234C145.163 24.2234 145.828 24.0385 146.424 23.6662V23.6637Z" fill="#202124"/>
<path d="M152.675 8.59308H154.703V25.6791H152.675V8.59308Z" fill="#202124"/>
<path d="M159.378 25.2246C158.456 24.6675 157.735 23.8999 157.219 22.9217C156.703 21.9435 156.444 20.8421 156.444 19.6174C156.444 18.3928 156.685 17.3581 157.17 16.3723C157.655 15.3864 158.343 14.5982 159.234 14.0103C160.125 13.4223 161.16 13.1271 162.336 13.1271C163.512 13.1271 164.562 13.3941 165.437 13.9255C166.313 14.4596 166.985 15.1938 167.453 16.1335C167.922 17.0732 168.156 18.1463 168.156 19.3556C168.156 19.5943 168.133 19.8023 168.084 19.9769H158.467C158.515 20.8986 158.736 21.6791 159.134 22.3158C159.532 22.9525 160.038 23.43 160.649 23.7484C161.26 24.0667 161.902 24.2259 162.569 24.2259C164.128 24.2259 165.329 23.4942 166.171 22.0308L167.889 22.8652C167.365 23.8511 166.652 24.6316 165.753 25.2041C164.854 25.7766 163.768 26.0642 162.495 26.0642C161.334 26.0642 160.292 25.7869 159.368 25.2298L159.378 25.2246ZM166.012 18.3055C165.981 17.7972 165.838 17.2888 165.584 16.7779C165.329 16.2696 164.926 15.8382 164.379 15.4891C163.83 15.1399 163.142 14.9653 162.315 14.9653C161.36 14.9653 160.554 15.2708 159.894 15.8845C159.234 16.4981 158.8 17.3042 158.593 18.3055H166.015H166.012Z" fill="#202124"/>
<path d="M175.987 8.59302H181.142C182.893 8.59302 184.418 8.95502 185.725 9.67903C187.029 10.403 188.03 11.4094 188.731 12.6983C189.432 13.9871 189.781 15.4659 189.781 17.1373C189.781 18.8087 189.432 20.2875 188.731 21.5763C188.03 22.8652 187.029 23.8716 185.725 24.5956C184.42 25.3196 182.893 25.6816 181.142 25.6816H175.987V8.59302ZM181.142 23.7458C183.162 23.7458 184.765 23.1655 185.951 22.0025C187.137 20.8421 187.727 19.2195 187.727 17.1347C187.727 15.05 187.134 13.4274 185.951 12.267C184.765 11.1065 183.162 10.5237 181.142 10.5237H177.992V23.7432H181.142V23.7458Z" fill="#202124"/>
<path d="M194.057 25.2246C193.135 24.6675 192.414 23.8999 191.898 22.9217C191.382 21.9435 191.122 20.8421 191.122 19.6174C191.122 18.3928 191.364 17.3581 191.849 16.3723C192.334 15.3864 193.022 14.5982 193.913 14.0103C194.804 13.4223 195.839 13.1271 197.014 13.1271C198.19 13.1271 199.24 13.3941 200.116 13.9255C200.991 14.4596 201.664 15.1938 202.131 16.1335C202.601 17.0732 202.835 18.1463 202.835 19.3556C202.835 19.5943 202.812 19.8023 202.763 19.9769H193.145C193.194 20.8986 193.415 21.6791 193.813 22.3158C194.211 22.9525 194.717 23.43 195.328 23.7484C195.939 24.0667 196.581 24.2259 197.248 24.2259C198.807 24.2259 200.008 23.4942 200.85 22.0308L202.568 22.8652C202.044 23.8511 201.33 24.6316 200.432 25.2041C199.533 25.7766 198.447 26.0642 197.174 26.0642C196.013 26.0642 194.971 25.7869 194.047 25.2298L194.057 25.2246ZM200.691 18.3055C200.66 17.7972 200.516 17.2888 200.262 16.7779C200.008 16.2696 199.605 15.8382 199.058 15.4891C198.509 15.1399 197.821 14.9653 196.994 14.9653C196.039 14.9653 195.233 15.2708 194.573 15.8845C193.913 16.4981 193.479 17.3042 193.271 18.3055H200.694H200.691Z" fill="#202124"/>
<path d="M202.752 13.507H204.924L208.696 23.2914H208.744L212.562 13.507H214.685L209.723 25.6765H207.671L202.755 13.507H202.752Z" fill="#202124"/>
<path d="M217.466 25.2246C216.544 24.6675 215.823 23.8999 215.307 22.9217C214.791 21.9435 214.531 20.8421 214.531 19.6174C214.531 18.3928 214.773 17.3581 215.258 16.3723C215.743 15.3864 216.431 14.5982 217.322 14.0103C218.213 13.4223 219.248 13.1271 220.423 13.1271C221.599 13.1271 222.649 13.3941 223.525 13.9255C224.4 14.4596 225.073 15.1938 225.54 16.1335C226.01 17.0732 226.244 18.1463 226.244 19.3556C226.244 19.5943 226.221 19.8023 226.172 19.9769H216.554C216.603 20.8986 216.824 21.6791 217.222 22.3158C217.62 22.9525 218.126 23.43 218.737 23.7484C219.348 24.0667 219.99 24.2259 220.657 24.2259C222.216 24.2259 223.417 23.4942 224.259 22.0308L225.977 22.8652C225.453 23.8511 224.739 24.6316 223.841 25.2041C222.942 25.7766 221.856 26.0642 220.583 26.0642C219.422 26.0642 218.38 25.7869 217.456 25.2298L217.466 25.2246ZM224.1 18.3055C224.069 17.7972 223.925 17.2888 223.671 16.7779C223.417 16.2696 223.014 15.8382 222.467 15.4891C221.918 15.1399 221.23 14.9653 220.403 14.9653C219.448 14.9653 218.642 15.2708 217.982 15.8845C217.322 16.4981 216.888 17.3042 216.68 18.3055H224.103H224.1Z" fill="#202124"/>
<path d="M227.988 8.59302H230.016V25.679H227.988V8.59302Z" fill="#202124"/>
<path d="M234.785 25.2015C233.83 24.629 233.086 23.8485 232.554 22.8626C232.02 21.8768 231.756 20.7856 231.756 19.5943C231.756 18.4031 232.023 17.3119 232.554 16.326C233.088 15.3402 233.83 14.5597 234.785 13.9872C235.741 13.4146 236.814 13.1271 238.008 13.1271C239.201 13.1271 240.275 13.4146 241.23 13.9872C242.185 14.5597 242.927 15.3402 243.461 16.326C243.995 17.3119 244.259 18.4031 244.259 19.5943C244.259 20.7856 243.992 21.8768 243.461 22.8626C242.927 23.8485 242.185 24.629 241.23 25.2015C240.275 25.7741 239.201 26.0616 238.008 26.0616C236.814 26.0616 235.741 25.7741 234.785 25.2015ZM240.095 23.6611C240.739 23.2863 241.255 22.7497 241.646 22.0513C242.036 21.3504 242.231 20.5314 242.231 19.5943C242.231 18.6572 242.036 17.8357 241.646 17.1373C241.255 16.4364 240.739 15.8999 240.095 15.5276C239.45 15.1527 238.755 14.9679 238.008 14.9679C237.26 14.9679 236.56 15.1553 235.907 15.5276C235.255 15.9024 234.734 16.439 234.344 17.1373C233.954 17.8382 233.758 18.6572 233.758 19.5943C233.758 20.5314 233.954 21.353 234.344 22.0513C234.734 22.7522 235.255 23.2888 235.907 23.6611C236.56 24.0359 237.26 24.2208 238.008 24.2208C238.755 24.2208 239.45 24.0334 240.095 23.6611Z" fill="#202124"/>
<path d="M245.928 13.5071H247.861V15.3196H247.956C248.321 14.6983 248.875 14.1771 249.615 13.7561C250.354 13.335 251.186 13.1245 252.108 13.1245C253.189 13.1245 254.174 13.4018 255.065 13.9589C255.956 14.516 256.657 15.2863 257.165 16.2747C257.674 17.2606 257.928 18.3671 257.928 19.5918C257.928 20.8164 257.674 21.9435 257.165 22.9217C256.657 23.8999 255.956 24.6675 255.065 25.2246C254.174 25.7818 253.189 26.059 252.108 26.059C251.186 26.059 250.354 25.8485 249.615 25.4275C248.875 25.0064 248.323 24.4929 247.956 23.887H247.861L247.956 25.5584V30.8318H245.928V13.5071ZM253.851 23.6483C254.472 23.2657 254.968 22.7214 255.343 22.0128C255.717 21.3042 255.902 20.4981 255.902 19.5918C255.902 18.6855 255.715 17.8768 255.343 17.1707C254.968 16.4621 254.472 15.9178 253.851 15.5353C253.23 15.1528 252.57 14.9628 251.871 14.9628C251.173 14.9628 250.511 15.1528 249.892 15.5353C249.271 15.9178 248.778 16.457 248.413 17.1579C248.046 17.8588 247.864 18.6701 247.864 19.5918C247.864 20.5135 248.046 21.3248 248.413 22.0257C248.778 22.7266 249.273 23.2657 249.892 23.6483C250.511 24.0308 251.173 24.2208 251.871 24.2208C252.57 24.2208 253.232 24.0308 253.851 23.6483Z" fill="#202124"/>
<path d="M261.943 25.2246C261.022 24.6675 260.3 23.8999 259.784 22.9217C259.268 21.9435 259.009 20.8421 259.009 19.6174C259.009 18.3928 259.25 17.3581 259.735 16.3723C260.221 15.3864 260.909 14.5982 261.8 14.0103C262.691 13.4223 263.725 13.1271 264.901 13.1271C266.077 13.1271 267.127 13.3941 268.002 13.9255C268.878 14.4596 269.551 15.1938 270.018 16.1335C270.488 17.0732 270.721 18.1463 270.721 19.3556C270.721 19.5943 270.698 19.8023 270.649 19.9769H261.032C261.081 20.8986 261.302 21.6791 261.7 22.3158C262.097 22.9525 262.603 23.43 263.214 23.7484C263.825 24.0667 264.467 24.2259 265.135 24.2259C266.693 24.2259 267.895 23.4942 268.737 22.0308L270.454 22.8652C269.931 23.8511 269.217 24.6316 268.318 25.2041C267.42 25.7766 266.334 26.0642 265.06 26.0642C263.9 26.0642 262.857 25.7869 261.933 25.2298L261.943 25.2246ZM268.578 18.3055C268.547 17.7972 268.403 17.2888 268.149 16.7779C267.895 16.2696 267.492 15.8382 266.945 15.4891C266.395 15.1399 265.707 14.9653 264.881 14.9653C263.925 14.9653 263.119 15.2708 262.459 15.8845C261.8 16.4981 261.366 17.3042 261.158 18.3055H268.58H268.578Z" fill="#202124"/>
<path d="M272.439 13.5071H274.372V15.4634H274.467C274.706 14.7959 275.168 14.2388 275.851 13.792C276.534 13.3479 277.25 13.1245 277.997 13.1245C278.554 13.1245 279.032 13.2118 279.43 13.3864V15.5584C278.921 15.3042 278.349 15.1759 277.712 15.1759C277.124 15.1759 276.582 15.3427 276.09 15.6791C275.597 16.0128 275.204 16.4647 274.909 17.0295C274.613 17.5969 274.467 18.2054 274.467 18.8601V25.6765H272.439V13.5071Z" fill="#202124"/>
<path d="M286.853 8.59302H292.604C293.559 8.59302 294.442 8.80868 295.253 9.23743C296.065 9.66619 296.712 10.267 297.197 11.0397C297.682 11.8125 297.923 12.6829 297.923 13.6534C297.923 14.6238 297.679 15.4942 297.197 16.267C296.712 17.0397 296.062 17.6379 295.253 18.0693C294.442 18.498 293.559 18.7137 292.604 18.7137H288.858V25.6816H286.853V8.59302ZM292.65 16.7779C293.287 16.7779 293.846 16.6264 294.332 16.3234C294.817 16.0205 295.194 15.6302 295.466 15.1553C295.736 14.6777 295.872 14.1771 295.872 13.6508C295.872 13.1245 295.736 12.6238 295.466 12.1463C295.197 11.6688 294.817 11.2785 294.332 10.9781C293.846 10.6752 293.287 10.5237 292.65 10.5237H288.855V16.7753H292.65V16.7779Z" fill="#202124"/>
<path d="M299.327 13.5071H301.261V15.4634H301.356C301.594 14.7959 302.056 14.2388 302.739 13.792C303.422 13.3479 304.139 13.1245 304.886 13.1245C305.443 13.1245 305.92 13.2118 306.318 13.3864V15.5584C305.81 15.3042 305.237 15.1759 304.601 15.1759C304.013 15.1759 303.471 15.3427 302.978 15.6791C302.485 16.0128 302.092 16.4647 301.797 17.0295C301.502 17.5969 301.356 18.2054 301.356 18.8601V25.6765H299.327V13.5071Z" fill="#202124"/>
<path d="M309.651 25.2015C308.696 24.629 307.951 23.8485 307.42 22.8626C306.886 21.8768 306.621 20.7856 306.621 19.5943C306.621 18.4031 306.888 17.3119 307.42 16.326C307.954 15.3402 308.696 14.5597 309.651 13.9872C310.606 13.4146 311.679 13.1271 312.873 13.1271C314.067 13.1271 315.14 13.4146 316.095 13.9872C317.05 14.5597 317.792 15.3402 318.326 16.326C318.86 17.3119 319.124 18.4031 319.124 19.5943C319.124 20.7856 318.857 21.8768 318.326 22.8626C317.792 23.8485 317.05 24.629 316.095 25.2015C315.14 25.7741 314.067 26.0616 312.873 26.0616C311.679 26.0616 310.606 25.7741 309.651 25.2015ZM314.96 23.6611C315.605 23.2863 316.121 22.7497 316.511 22.0513C316.901 21.3504 317.096 20.5314 317.096 19.5943C317.096 18.6572 316.901 17.8357 316.511 17.1373C316.121 16.4364 315.605 15.8999 314.96 15.5276C314.316 15.1527 313.62 14.9679 312.873 14.9679C312.126 14.9679 311.425 15.1553 310.773 15.5276C310.121 15.9024 309.599 16.439 309.209 17.1373C308.819 17.8382 308.624 18.6572 308.624 19.5943C308.624 20.5314 308.819 21.353 309.209 22.0513C309.599 22.7522 310.121 23.2888 310.773 23.6611C311.425 24.0359 312.126 24.2208 312.873 24.2208C313.62 24.2208 314.316 24.0334 314.96 23.6611Z" fill="#202124"/>
<path d="M322.634 30.2105C321.705 29.543 321.078 28.7394 320.76 27.7997L322.598 27.0115C322.868 27.7124 323.317 28.2798 323.946 28.7189C324.575 29.1553 325.317 29.3761 326.177 29.3761C327.432 29.3761 328.408 29.0244 329.101 28.3235C329.794 27.6226 330.139 26.6213 330.139 25.3196V23.9589H330.044C329.646 24.5802 329.086 25.0834 328.362 25.4737C327.638 25.8639 326.814 26.059 325.892 26.059C324.842 26.059 323.884 25.7843 323.017 25.2375C322.149 24.6906 321.461 23.9255 320.952 22.9448C320.444 21.9641 320.19 20.8447 320.19 19.5918C320.19 18.3389 320.444 17.24 320.952 16.249C321.461 15.2606 322.149 14.4929 323.017 13.9461C323.884 13.3992 324.842 13.1245 325.892 13.1245C326.814 13.1245 327.638 13.3196 328.362 13.7099C329.086 14.1001 329.646 14.6136 330.044 15.2477H330.139V13.5071H332.072V25.199C332.072 27.1553 331.53 28.647 330.449 29.6739C329.368 30.7009 327.943 31.2144 326.177 31.2144C324.744 31.2144 323.563 30.8806 322.634 30.2131V30.2105ZM328.172 23.6637C328.768 23.2914 329.245 22.7599 329.605 22.0642C329.964 21.3684 330.141 20.5443 330.141 19.5918C330.141 18.6393 329.961 17.7895 329.605 17.0963C329.248 16.4031 328.77 15.8716 328.172 15.5096C327.574 15.1476 326.911 14.9653 326.18 14.9653C325.448 14.9653 324.78 15.1502 324.174 15.5225C323.569 15.8947 323.088 16.4262 322.732 17.1219C322.375 17.8177 322.195 18.6418 322.195 19.5943C322.195 20.5468 322.375 21.3761 322.732 22.0796C323.088 22.783 323.571 23.3171 324.174 23.6791C324.778 24.0436 325.448 24.2234 326.18 24.2234C326.911 24.2234 327.576 24.0385 328.172 23.6662V23.6637Z" fill="#202124"/>
<path d="M334.426 13.5071H336.359V15.4634H336.454C336.693 14.7959 337.155 14.2388 337.838 13.792C338.521 13.3479 339.237 13.1245 339.985 13.1245C340.542 13.1245 341.019 13.2118 341.417 13.3864V15.5584C340.909 15.3042 340.336 15.1759 339.7 15.1759C339.112 15.1759 338.57 15.3427 338.077 15.6791C337.584 16.0128 337.191 16.4647 336.896 17.0295C336.601 17.5969 336.454 18.2054 336.454 18.8601V25.6765H334.426V13.5071Z" fill="#202124"/>
<path d="M344.208 25.5353C343.507 25.1861 342.968 24.7035 342.585 24.0924C342.203 23.4814 342.013 22.783 342.013 22.0051C342.013 20.7163 342.498 19.7099 343.468 18.9859C344.439 18.2619 345.664 17.8999 347.142 17.8999C347.874 17.8999 348.554 17.9794 349.183 18.1386C349.812 18.2978 350.293 18.4801 350.626 18.688V17.9486C350.626 17.0423 350.308 16.3132 349.671 15.7664C349.035 15.2169 348.231 14.9422 347.26 14.9422C346.575 14.9422 345.949 15.0886 345.376 15.3838C344.803 15.6791 344.349 16.0873 344.015 16.6136L342.488 15.4685C342.965 14.7368 343.62 14.1643 344.457 13.7509C345.291 13.3376 346.218 13.1296 347.237 13.1296C348.891 13.1296 350.192 13.5635 351.14 14.4313C352.087 15.2991 352.56 16.4801 352.56 17.9743V25.6816H350.626V23.9384H350.531C350.182 24.5263 349.656 25.0295 348.957 25.4429C348.257 25.8562 347.471 26.0642 346.595 26.0642C345.72 26.0642 344.909 25.8896 344.21 25.5404L344.208 25.5353ZM348.696 23.7458C349.284 23.3966 349.753 22.9268 350.103 22.3389C350.452 21.7509 350.626 21.1065 350.626 20.4056C350.244 20.1515 349.774 19.9435 349.219 19.7843C348.662 19.6251 348.074 19.5456 347.453 19.5456C346.339 19.5456 345.499 19.7766 344.934 20.2388C344.37 20.7009 344.087 21.2965 344.087 22.0282C344.087 22.6958 344.341 23.2375 344.85 23.6508C345.358 24.0642 346.002 24.2721 346.783 24.2721C347.466 24.2721 348.103 24.0975 348.693 23.7484L348.696 23.7458Z" fill="#202124"/>
<path d="M354.791 13.5071H356.724V15.2965H356.819C357.168 14.6752 357.694 14.1592 358.393 13.7458C359.094 13.3325 359.833 13.1245 360.611 13.1245C361.502 13.1245 362.277 13.3402 362.937 13.7689C363.597 14.1977 364.072 14.7702 364.357 15.4865C364.786 14.7702 365.355 14.1977 366.064 13.7689C366.773 13.3402 367.594 13.1245 368.534 13.1245C369.933 13.1245 370.988 13.5507 371.694 14.4005C372.403 15.2529 372.757 16.4082 372.757 17.8716V25.6739H370.752V18.1823C370.752 17.0526 370.521 16.2336 370.059 15.7253C369.597 15.2169 368.914 14.9628 368.008 14.9628C367.402 14.9628 366.855 15.1373 366.362 15.4865C365.869 15.8357 365.484 16.3055 365.204 16.8934C364.927 17.4814 364.786 18.1181 364.786 18.8036V25.6765H362.757V18.208C362.757 17.0629 362.526 16.2362 362.064 15.7253C361.602 15.2169 360.927 14.9628 360.036 14.9628C359.43 14.9628 358.883 15.1425 358.39 15.4994C357.897 15.8562 357.512 16.3338 357.232 16.932C356.955 17.5276 356.814 18.1694 356.814 18.8524V25.6765H354.786V13.5071H354.791Z" fill="#202124"/>
</g>
<defs>
<clipPath id="clip0_7255_11667">
<rect width="372.76" height="34" fill="white"/>
</clipPath>
</defs>
</svg>
